<svg width="10" height="10" viewBox="0 0 10 10" fill="none" xmlns="http://www.w3.org/2000/svg">
	<path d="M4.0625 5C4.0625 5.51688 4.48312 5.9375 5 5.9375C5.51688 5.9375 5.9375 5.51688 5.9375 5C5.9375 4.48312 5.51688 4.0625 5 4.0625C4.48312 4.0625 4.0625 4.48312 4.0625 5Z" fill="#45556C" />
	<path d="M4.0625 8.125C4.0625 8.64188 4.48312 9.0625 5 9.0625C5.51688 9.0625 5.9375 8.64188 5.9375 8.125C5.9375 7.60812 5.51688 7.1875 5 7.1875C4.48312 7.1875 4.0625 7.60812 4.0625 8.125Z" fill="#45556C" />
	<path d="M4.0625 1.875C4.0625 2.39188 4.48312 2.8125 5 2.8125C5.51688 2.8125 5.9375 2.39188 5.9375 1.875C5.9375 1.35812 5.51688 0.9375 5 0.9375C4.48312 0.9375 4.0625 1.35812 4.0625 1.875Z" fill="#45556C" />
</svg>
