<svg width="36" height="36" viewBox="0 0 36 36" fill="none" xmlns="http://www.w3.org/2000/svg">
	<path d="M18 8.34961C23.3023 8.34961 27.6505 12.6977 27.6504 18L27.6406 18.4209C27.4518 22.7584 24.3649 26.6404 20.2617 27.6318L19.459 27.8262V23.2822L19.4463 23.0068C19.4213 22.764 19.3652 22.5968 19.3252 22.3076C19.3029 22.1461 19.2833 21.8958 19.3906 21.6377C19.5058 21.361 19.7197 21.1833 19.9434 21.0635L20.043 21.0098L20.1543 20.9932C21.2085 20.8359 21.658 20.4984 21.9023 20.1855C22.1941 19.8119 22.2645 19.4289 22.4902 18.8311L22.5566 18.6426C22.8551 17.7128 22.7045 16.9737 22.4805 16.4346C22.3583 16.1404 22.2123 15.9007 22.0898 15.7139C22.0374 15.6339 21.9631 15.526 21.9199 15.4561C21.8973 15.4195 21.8624 15.3608 21.834 15.2949C21.8196 15.2615 21.7979 15.2055 21.7842 15.1357C21.7716 15.0715 21.7548 14.942 21.8037 14.791L21.8057 14.7871L21.8555 14.6143C21.9552 14.2147 21.9371 13.8436 21.8848 13.5449C21.8766 13.4984 21.8649 13.4545 21.8555 13.4121C21.8543 13.4124 21.8528 13.4128 21.8516 13.4131C21.6795 13.4558 21.3101 13.5984 20.4053 14.1465L20.2998 14.21L20.1787 14.2305L20.0244 14.2568L19.8828 14.2812L19.7441 14.2441C19.1616 14.0861 18.5793 14.0023 18 13.9941C17.424 14.0024 16.8373 14.0862 16.2812 14.2373L16.2217 14.2529L16.1807 14.2559C16.1601 14.2607 16.1307 14.2685 16.0967 14.2725C15.9556 14.2888 15.8367 14.2597 15.749 14.2246C15.6837 14.1984 15.6268 14.1656 15.5996 14.1494L15.5977 14.1475L15.3457 13.9961L15.3428 13.9941C14.6317 13.5621 14.3172 13.4507 14.1592 13.4141C14.1537 13.4128 14.1478 13.4123 14.1426 13.4111C14.1331 13.4528 14.1224 13.4962 14.1143 13.542C14.0616 13.8364 14.0434 14.2065 14.1445 14.6113L14.1953 14.7871L14.1963 14.792L14.2188 14.8809C14.2556 15.0811 14.1956 15.2422 14.1729 15.2979C14.1556 15.3401 14.1349 15.3807 14.1123 15.418L14.0391 15.5195C13.3285 16.361 13.098 17.7398 13.5098 18.832H13.5088C13.7344 19.4295 13.806 19.8119 14.0977 20.1855C14.3115 20.4594 14.6826 20.7525 15.4785 20.9268L15.8457 20.9941L15.957 21.0107L16.0566 21.0635C16.2505 21.1671 16.4476 21.3106 16.5811 21.5273C16.7236 21.7589 16.7446 21.9944 16.7305 22.1826C16.7181 22.3464 16.6743 22.5162 16.6484 22.6221C16.6179 22.747 16.5911 22.8598 16.5752 22.9863L16.541 23.2588V27.8262L15.7383 27.6318C11.5029 26.6084 8.34961 22.505 8.34961 18C8.34961 12.6977 12.6977 8.34965 18 8.34961Z" fill="#E2E8F0" stroke="#62748E" stroke-width="1.3" />
</svg>
