<svg width="64" height="16" viewBox="0 0 64 16" fill="none" xmlns="http://www.w3.org/2000/svg">
	<path d="M24.726 13.14C23.6713 13.14 22.7613 12.93 21.996 12.51C21.2307 12.0807 20.638 11.4833 20.218 10.718C19.8073 9.95267 19.602 9.052 19.602 8.016C19.602 6.98933 19.8073 6.084 20.218 5.3C20.638 4.50667 21.2167 3.89067 21.954 3.452C22.6913 3.004 23.5407 2.78 24.502 2.78C25.2673 2.78 25.958 2.92467 26.574 3.214C27.1993 3.494 27.708 3.886 28.1 4.39C28.5013 4.894 28.7393 5.47733 28.814 6.14H27.33C27.2367 5.496 26.938 4.98733 26.434 4.614C25.93 4.23133 25.3 4.04 24.544 4.04C23.8533 4.04 23.2513 4.20333 22.738 4.53C22.2247 4.85667 21.8233 5.314 21.534 5.902C21.254 6.49 21.114 7.18533 21.114 7.988C21.114 8.8 21.2587 9.5 21.548 10.088C21.8373 10.6667 22.2573 11.1147 22.808 11.432C23.368 11.74 24.04 11.894 24.824 11.894C25.384 11.894 25.8787 11.8147 26.308 11.656C26.7373 11.4973 27.1107 11.264 27.428 10.956L28.87 11.502C28.3473 12.0433 27.7453 12.454 27.064 12.734C26.3827 13.0047 25.6033 13.14 24.726 13.14ZM27.386 11.502V8.408L27.82 8.842H24.81V7.61H28.87V11.502H27.386ZM30.4061 13V5.86H31.8621V13H30.4061ZM30.3361 4.46V2.822H31.9461V4.46H30.3361ZM36.6094 13.14C35.7787 13.14 35.1674 12.9487 34.7754 12.566C34.3927 12.174 34.2014 11.6 34.2014 10.844V4.222L35.6434 3.676V10.858C35.6434 11.2313 35.7414 11.5067 35.9374 11.684C36.1334 11.8613 36.4507 11.95 36.8894 11.95C37.0574 11.95 37.2067 11.936 37.3374 11.908C37.468 11.88 37.58 11.8473 37.6734 11.81V12.986C37.5707 13.0327 37.426 13.07 37.2394 13.098C37.0527 13.126 36.8427 13.14 36.6094 13.14ZM32.7734 7.022V5.86H37.6734V7.022H32.7734ZM38.7878 13V2.92H40.2718V13H38.7878ZM45.4658 13V2.92H46.9498V13H45.4658ZM39.5158 7.134H46.1238V8.366H39.5158V7.134ZM51.058 13.14C50.582 13.14 50.162 13.042 49.798 12.846C49.434 12.6407 49.1494 12.3607 48.944 12.006C48.748 11.6513 48.65 11.2453 48.65 10.788V5.86H50.106V10.452C50.106 10.9467 50.2274 11.3153 50.47 11.558C50.7127 11.8007 51.058 11.922 51.506 11.922C51.9074 11.922 52.262 11.8287 52.57 11.642C52.8874 11.4553 53.1347 11.1987 53.312 10.872C53.4987 10.536 53.592 10.1487 53.592 9.71L53.774 11.418C53.5407 11.9407 53.1814 12.3607 52.696 12.678C52.22 12.986 51.674 13.14 51.058 13.14ZM53.648 13V11.32H53.592V5.86H55.034V13H53.648ZM60.6019 13.126C59.9299 13.126 59.3699 12.9673 58.9219 12.65C58.4739 12.3233 58.1799 11.8707 58.0399 11.292L58.1799 11.264V13H56.7939V2.92H58.2499V7.498L58.0959 7.456C58.2545 6.91467 58.5625 6.49 59.0199 6.182C59.4865 5.874 60.0465 5.72 60.6999 5.72C61.3439 5.72 61.8992 5.874 62.3659 6.182C62.8419 6.49 63.2059 6.91933 63.4579 7.47C63.7192 8.02067 63.8499 8.66467 63.8499 9.402C63.8499 10.1487 63.7145 10.802 63.4439 11.362C63.1732 11.922 62.7952 12.356 62.3099 12.664C61.8245 12.972 61.2552 13.126 60.6019 13.126ZM60.2939 11.922C60.9285 11.922 61.4325 11.698 61.8059 11.25C62.1792 10.802 62.3659 10.186 62.3659 9.402C62.3659 8.62733 62.1792 8.02533 61.8059 7.596C61.4325 7.15733 60.9239 6.938 60.2799 6.938C59.6452 6.938 59.1365 7.162 58.7539 7.61C58.3805 8.04867 58.1939 8.66 58.1939 9.444C58.1939 10.2093 58.3805 10.816 58.7539 11.264C59.1365 11.7027 59.6499 11.922 60.2939 11.922Z" fill="white" />
	<path d="M5.74563 14.3999C6.20083 14.3999 6.32499 14.2204 6.32499 13.9993C6.32499 13.8014 6.31795 13.2772 6.31443 12.5826C3.95587 13.085 3.45843 11.4649 3.45843 11.4649C3.07267 10.5033 2.51507 10.246 2.51507 10.246C1.74707 9.72952 2.57443 9.74008 2.57443 9.74008C3.42595 9.798 3.87315 10.5986 3.87315 10.5986C4.62915 11.8726 5.85795 11.5046 6.34275 11.2918C6.41907 10.7526 6.63747 10.3858 6.87971 10.1775C4.99667 9.96904 3.01747 9.25256 3.01747 6.06024C3.01747 5.1508 3.34611 4.4076 3.89011 3.82456C3.79475 3.614 3.50851 2.7668 3.96435 1.61928C3.96435 1.61928 4.67443 1.39592 6.29603 2.47352C6.97443 2.2884 7.69507 2.19656 8.41587 2.19224C9.13667 2.1964 9.85731 2.2884 10.5357 2.47352C12.1468 1.39592 12.8568 1.61928 12.8568 1.61928C13.3125 2.7668 13.0264 3.614 12.9416 3.82456C13.4821 4.40744 13.8108 5.1508 13.8108 6.06024C13.8108 9.26104 11.8288 9.96552 9.94211 10.1705C10.2389 10.4206 10.5144 10.9314 10.5144 11.7122C10.5144 12.8273 10.5039 13.7233 10.5039 13.9938C10.5039 14.2122 10.5983 14.3895 11.0868 14.3895L5.74563 14.3999Z" fill="white" />
</svg>
