<svg width="36" height="36" viewBox="0 0 36 36" fill="none" xmlns="http://www.w3.org/2000/svg">
	<path d="M18 8.34961C23.3298 8.34961 27.6504 12.6702 27.6504 18C27.6504 23.3298 23.3298 27.6504 18 27.6504C12.6702 27.6504 8.34961 23.3298 8.34961 18C8.34961 12.6702 12.6702 8.34961 18 8.34961ZM17.9697 12.4316C17.9619 12.4396 17.958 12.4508 17.958 12.4619V18C17.958 18.0232 17.9768 18.042 18 18.042H22.1543C22.1652 18.0419 22.1758 18.0379 22.1836 18.0303C22.1915 18.0223 22.1963 18.0112 22.1963 18C22.1963 17.9888 22.1915 17.9777 22.1836 17.9697C22.1758 17.9621 22.1652 17.9581 22.1543 17.958H18.042V12.4619L18.0303 12.4316C18.0223 12.4237 18.0112 12.4189 18 12.4189L17.9697 12.4316Z" fill="#E2E8F0" stroke="#45556C" stroke-width="1.3" />
</svg>
