<svg width="14" height="14" viewBox="0 0 14 14" fill="none" xmlns="http://www.w3.org/2000/svg">
	<path d="M6.99962 0C6.65091 0 6.36719 0.283719 6.36719 0.632488V3.20608C6.36719 3.55485 6.65091 3.83857 6.99962 3.83857C7.34839 3.83857 7.63211 3.55485 7.63211 3.20608V0.632488C7.63211 0.283719 7.34839 0 6.99962 0Z" fill="#006597" />
	<path opacity="0.3" d="M6.99962 10.1614C6.65091 10.1614 6.36719 10.4451 6.36719 10.7939V13.3675C6.36719 13.7162 6.65091 13.9999 6.99962 13.9999C7.34839 13.9999 7.63211 13.7162 7.63211 13.3675V10.7939C7.63211 10.4451 7.34839 10.1614 6.99962 10.1614Z" fill="#006597" />
	<path opacity="0.15" d="M4.31738 9.05029C4.14843 9.05029 3.98959 9.11619 3.8702 9.23563L2.05031 11.0554C1.80384 11.3019 1.80384 11.7032 2.0505 11.95C2.17 12.0693 2.32878 12.1351 2.49755 12.1351C2.66637 12.1351 2.8251 12.0694 2.94478 11.9498L4.76467 10.13C4.88405 10.0104 4.94987 9.85171 4.94987 9.68275C4.94987 9.5138 4.88405 9.35496 4.76467 9.23563C4.64518 9.11619 4.48634 9.05029 4.31738 9.05029Z" fill="#006597" />
	<path opacity="0.85" d="M9.68321 5.09777C9.85217 5.09777 10.011 5.03195 10.1304 4.91243L11.9503 3.09271C12.1968 2.84612 12.1968 2.44482 11.9501 2.19805C11.7037 1.95195 11.3025 1.95176 11.0559 2.19824L9.23598 4.01807C9.11654 4.13762 9.05078 4.29635 9.05078 4.46531C9.05078 4.63426 9.1166 4.7931 9.23598 4.91243C9.35547 5.03198 9.51429 5.09777 9.68321 5.09777Z" fill="#006597" />
	<path opacity="0.45" d="M10.1305 9.23563C10.011 9.11619 9.8522 9.05029 9.68321 9.05029C9.51423 9.05029 9.35542 9.11619 9.23609 9.23555C9.1166 9.35498 9.05078 9.51382 9.05078 9.68278C9.05078 9.85174 9.11654 10.0105 9.23603 10.13L11.056 11.95C11.1755 12.0694 11.3343 12.1351 11.5031 12.1351C11.6719 12.1351 11.8306 12.0694 11.9503 11.9499C12.1968 11.7033 12.1968 11.302 11.9503 11.0554L10.1305 9.23563Z" fill="#006597" />
	<path opacity="0.05" d="M3.83857 7.00004C3.83857 6.65127 3.55485 6.36755 3.20608 6.36755H0.632434C0.283719 6.36755 0 6.65127 0 7.00004C0 7.34881 0.283719 7.63253 0.632434 7.63253H3.20608C3.55485 7.63253 3.83857 7.34881 3.83857 7.00004Z" fill="#006597" />
	<path opacity="0.6" d="M13.3672 6.36743H10.7936C10.4449 6.36743 10.1611 6.65115 10.1611 6.99992C10.1611 7.34869 10.4449 7.63241 10.7936 7.63241H13.3672C13.716 7.63241 13.9997 7.34869 13.9997 6.99992C13.9997 6.65115 13.716 6.36743 13.3672 6.36743Z" fill="#006597" />
</svg>
