<svg width="16" height="16" viewBox="0 0 16 16" fill="none" xmlns="http://www.w3.org/2000/svg">
	<path d="M13 9.5V7.75C13 7.15326 12.7629 6.58097 12.341 6.15901C11.919 5.73705 11.3467 5.5 10.75 5.5H9.75C9.55109 5.5 9.36032 5.42098 9.21967 5.28033C9.07902 5.13968 9 4.94891 9 4.75V3.75C9 3.15326 8.76295 2.58097 8.34099 2.15901C7.91903 1.73705 7.34674 1.5 6.75 1.5H5.5M6 11V11.5ZM8 9.5V11.5ZM10 8V11.5ZM7 1.5H3.75C3.336 1.5 3 1.836 3 2.25V13.75C3 14.164 3.336 14.5 3.75 14.5H12.25C12.664 14.5 13 14.164 13 13.75V7.5C13 5.9087 12.3679 4.38258 11.2426 3.25736C10.1174 2.13214 8.5913 1.5 7 1.5Z" fill="#F1F5F9" />
	<path d="M13 9.5V7.75C13 7.15326 12.7629 6.58097 12.341 6.15901C11.919 5.73705 11.3467 5.5 10.75 5.5H9.75C9.55109 5.5 9.36032 5.42098 9.21967 5.28033C9.07902 5.13968 9 4.94891 9 4.75V3.75C9 3.15326 8.76295 2.58097 8.34099 2.15901C7.91903 1.73705 7.34674 1.5 6.75 1.5H5.5M6 11V11.5M8 9.5V11.5M10 8V11.5M7 1.5H3.75C3.336 1.5 3 1.836 3 2.25V13.75C3 14.164 3.336 14.5 3.75 14.5H12.25C12.664 14.5 13 14.164 13 13.75V7.5C13 5.9087 12.3679 4.38258 11.2426 3.25736C10.1174 2.13214 8.5913 1.5 7 1.5Z" stroke="#45556C" stroke-linecap="round" stroke-linejoin="round" />
</svg>
