<svg width="32" height="32" viewBox="0 0 32 32" fill="none" xmlns="http://www.w3.org/2000/svg">
	<path d="M22.8995 7.35522C23.3664 7.39045 23.7829 7.6136 24.085 7.91577C24.3871 8.21793 24.6094 8.63442 24.6446 9.10132C24.6811 9.5861 24.511 10.0761 24.1114 10.4744L24.0987 10.4871C24.0874 10.4985 24.0707 10.5157 24.0489 10.5378C24.0053 10.5821 23.9409 10.6466 23.8594 10.7292C23.6966 10.8946 23.4637 11.131 23.1837 11.4148C22.6235 11.9826 21.8743 12.7415 21.1192 13.5027C20.3644 14.2635 19.6022 15.0281 19.0167 15.6091C18.7243 15.8992 18.4743 16.1456 18.2901 16.323C18.1985 16.4112 18.1199 16.4857 18.0596 16.5408C18.03 16.5678 18.0004 16.5944 17.9737 16.6169C17.9734 16.6172 17.8982 16.6844 17.8067 16.7292C17.7232 16.7702 17.6189 16.8001 17.5596 16.8171C17.4808 16.8398 17.3851 16.8652 17.2823 16.8904C17.076 16.9409 16.8225 16.9975 16.5743 17.0476C16.3276 17.0974 16.0752 17.1432 15.8751 17.1707C15.778 17.1839 15.6754 17.1951 15.586 17.198C15.5445 17.1993 15.4789 17.2 15.4083 17.1902C15.3739 17.1854 15.3123 17.1753 15.2422 17.1482C15.1841 17.1256 15.033 17.0588 14.9229 16.8914C14.8513 16.7824 14.8304 16.6781 14.8243 16.6472C14.8152 16.6018 14.8112 16.5623 14.8096 16.5369C14.8065 16.4851 14.8078 16.4347 14.8096 16.3953C14.8134 16.3133 14.8232 16.216 14.835 16.1169C14.8591 15.9154 14.8984 15.6614 14.9434 15.4109C14.9883 15.1611 15.0409 14.9024 15.0938 14.6912C15.12 14.5868 15.1486 14.4821 15.1797 14.3923C15.1952 14.348 15.2158 14.2961 15.2403 14.2449C15.2581 14.2076 15.3064 14.1096 15.3956 14.0203L21.5274 7.88843C21.9255 7.48945 22.415 7.31873 22.8995 7.35522Z" fill="#E2E8F0" stroke="#45556C" stroke-width="1.3" />
	<path d="M20.2505 8.97913L19.1226 10.0924L19.0815 10.1334C19.0542 10.1604 19.0135 10.2 18.9624 10.2506C18.8598 10.352 18.7125 10.4981 18.5356 10.6735C18.1819 11.0241 17.7085 11.4949 17.228 11.9752C16.7472 12.4559 16.2606 12.9446 15.8813 13.3326C15.6915 13.5269 15.53 13.6941 15.4106 13.8209C15.3298 13.9069 15.2811 13.9601 15.2563 13.9879C15.2485 14.0097 15.2384 14.0407 15.2261 14.0817C15.194 14.1886 15.1557 14.3365 15.1147 14.5172C15.0331 14.8777 14.9464 15.3402 14.8765 15.8053C14.8062 16.2729 14.7552 16.7274 14.7417 17.0768C14.7389 17.1482 14.7384 17.212 14.7388 17.2682C14.7888 17.2687 14.8457 17.2692 14.9087 17.2672C15.2501 17.2565 15.6962 17.2096 16.1626 17.1451C17.0203 17.0267 17.8618 16.8595 18.1255 16.7975C18.1527 16.778 18.1917 16.7511 18.2407 16.7115C18.3634 16.6125 18.5272 16.4699 18.7212 16.2936C19.1073 15.9426 19.5889 15.4809 20.063 15.0182C20.5361 14.5564 20.9973 14.0972 21.3403 13.7535C21.5116 13.582 21.6536 13.4393 21.7524 13.3395C21.8018 13.2897 21.8404 13.2499 21.8667 13.2233L21.9067 13.1832L23.02 12.0533V20.2672C23.0198 22.7527 21.1652 24.649 18.6665 24.649H11.7329C9.24069 24.649 7.35034 22.7593 7.3501 20.2672V14.4C7.3501 13.1851 7.80064 11.8505 8.62354 10.8112C9.45482 9.7612 10.697 8.97916 12.2661 8.97913H20.2505Z" fill="#E2E8F0" stroke="#45556C" stroke-width="1.3" />
</svg>
