<svg width="12" height="12" viewBox="0 0 12 12" fill="none" xmlns="http://www.w3.org/2000/svg">
	<g clip-path="url(#clip0_671_153)">
		<path d="M10.2422 3.42188H8.57812V1.75781C8.57812 0.788544 7.78958 0 6.82031 0H5.17969C4.21042 0 3.42188 0.788544 3.42188 1.75781V3.42188H1.75781C0.788544 3.42188 0 4.21042 0 5.17969V6.82031C0 7.78958 0.788544 8.57812 1.75781 8.57812H3.42188V10.2422C3.42188 11.2115 4.21042 12 5.17969 12H6.82031C7.78958 12 8.57812 11.2115 8.57812 10.2422V8.57812H10.2422C11.2115 8.57812 12 7.78958 12 6.82031V5.17969C12 4.21042 11.2115 3.42188 10.2422 3.42188ZM1.75781 7.875C1.17627 7.875 0.703125 7.40186 0.703125 6.82031V5.17969C0.703125 4.59814 1.17627 4.125 1.75781 4.125H6C6.19418 4.125 6.35156 3.96762 6.35156 3.77344C6.35156 3.57925 6.19418 3.42188 6 3.42188H4.125V1.75781C4.125 1.17627 4.59814 0.703125 5.17969 0.703125H6.82031C7.40186 0.703125 7.875 1.17627 7.875 1.75781V5.64844H3.77344C3.57925 5.64844 3.42188 5.80582 3.42188 6V7.875H1.75781ZM11.2969 6.82031C11.2969 7.40186 10.8237 7.875 10.2422 7.875H6C5.80582 7.875 5.64844 8.03238 5.64844 8.22656C5.64844 8.42075 5.80582 8.57812 6 8.57812H7.875V10.2422C7.875 10.8237 7.40186 11.2969 6.82031 11.2969H5.17969C4.59814 11.2969 4.125 10.8237 4.125 10.2422V6.35156H8.22656C8.42075 6.35156 8.57812 6.19418 8.57812 6V4.125H10.2422C10.8237 4.125 11.2969 4.59814 11.2969 5.17969V6.82031Z" fill="#45556C" />
		<path d="M5.53125 2.10938C5.53125 2.30356 5.37387 2.46094 5.17969 2.46094C4.9855 2.46094 4.82812 2.30356 4.82812 2.10938C4.82812 1.91519 4.9855 1.75781 5.17969 1.75781C5.37387 1.75781 5.53125 1.91519 5.53125 2.10938Z" fill="#45556C" />
		<path d="M7.17188 9.89062C7.17188 10.0848 7.0145 10.2422 6.82031 10.2422C6.62613 10.2422 6.46875 10.0848 6.46875 9.89062C6.46875 9.69644 6.62613 9.53906 6.82031 9.53906C7.0145 9.53906 7.17188 9.69644 7.17188 9.89062Z" fill="#45556C" />
	</g>
	<defs>
		<clipPath id="clip0_671_153">
			<rect width="12" height="12" fill="white" />
		</clipPath>
	</defs>
</svg>
