<svg width="10" height="12" viewBox="0 0 10 12" fill="none" xmlns="http://www.w3.org/2000/svg">
	<path d="M4.35 11C4.35 11.359 4.64102 11.65 5 11.65C5.35899 11.65 5.65 11.359 5.65 11L4.35 11ZM5.45962 0.540381C5.20578 0.28654 4.79422 0.28654 4.54038 0.540381L0.403806 4.67696C0.149965 4.9308 0.149965 5.34235 0.403806 5.59619C0.657647 5.85003 1.0692 5.85003 1.32304 5.59619L5 1.91924L8.67696 5.59619C8.9308 5.85003 9.34235 5.85003 9.59619 5.59619C9.85003 5.34235 9.85003 4.9308 9.59619 4.67696L5.45962 0.540381ZM5.65 11L5.65 1L4.35 1L4.35 11L5.65 11Z" fill="#F8FAFC" />
</svg>
