<svg width="18" height="18" viewBox="0 0 18 18" fill="none" xmlns="http://www.w3.org/2000/svg">
	<path d="M9 2.69336C9.36986 2.69336 9.70285 2.91378 9.84863 3.25293L11.2344 6.49609L14.7383 6.81543C15.107 6.84866 15.4194 7.09794 15.5332 7.44922L15.5654 7.58301C15.6176 7.89562 15.506 8.21672 15.2627 8.42969L12.6123 10.7529L13.3945 14.1943C13.4761 14.5548 13.3362 14.929 13.0361 15.1465C12.7743 15.3363 12.4361 15.3731 12.1436 15.252L12.0215 15.1904L8.99902 13.3838L5.97754 15.1904C5.83233 15.2773 5.66886 15.3223 5.50391 15.3223C5.31295 15.3222 5.12421 15.2623 4.96387 15.1465C4.66349 14.9294 4.52301 14.5551 4.60449 14.1943L5.38574 10.752L2.7373 8.42871C2.45872 8.18531 2.3527 7.80009 2.4668 7.44922C2.58097 7.09809 2.89276 6.84945 3.26074 6.81543L6.76465 6.49609L8.15137 3.25391C8.29709 2.91411 8.63007 2.69338 9 2.69336Z" fill="#FFC107" stroke="#45556C" stroke-width="0.5" />
</svg>
