<svg width="18" height="18" viewBox="0 0 18 18" fill="none" xmlns="http://www.w3.org/2000/svg">
	<g clip-path="url(#clip0_577_1800)">
		<path d="M8.52441 1.37137V2.35469C8.52441 2.61768 8.73722 2.83048 9.00021 2.83048C9.2632 2.83048 9.47601 2.61768 9.47601 2.35469V1.37137C9.47601 1.10838 9.2632 0.895569 9.00021 0.895569C8.73722 0.895569 8.52441 1.10838 8.52441 1.37137Z" fill="#62748E" />
		<path d="M2.8148 9.01584C2.8148 8.75285 2.60199 8.54004 2.339 8.54004H1.35568C1.09269 8.54004 0.879883 8.75285 0.879883 9.01584C0.879883 9.27883 1.09269 9.49164 1.35568 9.49164H2.339C2.60199 9.49164 2.8148 9.27883 2.8148 9.01584Z" fill="#62748E" />
		<path d="M16.6447 8.54004H15.6613C15.3984 8.54004 15.1855 8.75285 15.1855 9.01584C15.1855 9.27883 15.3984 9.49164 15.6613 9.49164H16.6447C16.9077 9.49164 17.1205 9.27883 17.1205 9.01584C17.1205 8.75285 16.9077 8.54004 16.6447 8.54004Z" fill="#62748E" />
		<path d="M2.99379 11.9343L2.16952 12.4101C1.94183 12.5416 1.86377 12.8325 1.99528 13.0601C2.12822 13.2897 2.42014 13.3644 2.64532 13.2344L3.46959 12.7586C3.69728 12.6271 3.77534 12.3362 3.64383 12.1085C3.51187 11.8809 3.22052 11.8028 2.99379 11.9343Z" fill="#62748E" />
		<path d="M15.0066 6.09743L15.8309 5.62163C16.0586 5.49012 16.1367 5.19928 16.0052 4.97159C15.8736 4.74391 15.5814 4.6654 15.3551 4.79736L14.5308 5.27316C14.3032 5.40467 14.2251 5.69551 14.3566 5.92319C14.4895 6.15272 14.7815 6.22748 15.0066 6.09743Z" fill="#62748E" />
		<path d="M12.3947 2.18506L11.9189 3.00933C11.7874 3.23702 11.8654 3.52789 12.0931 3.65937C12.3186 3.78958 12.6104 3.71431 12.7431 3.48513L13.2189 2.66086C13.3504 2.43317 13.2724 2.1423 13.0447 2.01082C12.817 1.87934 12.5261 1.95741 12.3947 2.18506Z" fill="#62748E" />
		<path d="M4.95589 2.01082C4.72821 2.14233 4.65015 2.43317 4.78166 2.66086L5.25746 3.48513C5.39039 3.71466 5.68231 3.78942 5.90749 3.65937C6.13518 3.52786 6.21324 3.23702 6.08173 3.00933L5.60593 2.18506C5.47398 1.95741 5.18171 1.87934 4.95589 2.01082Z" fill="#62748E" />
		<path d="M15.8311 12.4101L15.0069 11.9343C14.7797 11.8028 14.4883 11.8809 14.3568 12.1085C14.2254 12.3362 14.3034 12.6271 14.5311 12.7586L15.3553 13.2344C15.5808 13.3646 15.8726 13.2893 16.0054 13.0601C16.1369 12.8325 16.0588 12.5416 15.8311 12.4101Z" fill="#62748E" />
		<path d="M3.46958 5.27316L2.6453 4.79736C2.41809 4.6654 2.12674 4.74391 1.99527 4.97159C1.86379 5.19928 1.94182 5.49015 2.1695 5.62163L2.99378 6.09743C3.21908 6.22758 3.51094 6.15256 3.64381 5.92319C3.77529 5.69551 3.69723 5.40463 3.46958 5.27316Z" fill="#62748E" />
		<path d="M9.00016 4.74786C6.86272 4.74856 5.27856 6.18884 4.84853 7.94812C4.48147 9.44892 4.90988 10.9809 5.99388 12.0463C6.31634 12.3631 6.52014 12.8083 6.5891 13.2981H11.4131C11.4858 12.8094 11.6995 12.354 12.0376 12.0156C12.8405 11.2109 13.2824 10.1454 13.2824 9.01588C13.2824 6.71291 11.4653 4.74723 9.00016 4.74786ZM9.00016 12.3465C8.7374 12.3465 8.52436 12.1334 8.52436 11.8707C8.52436 11.6078 8.7374 11.3949 9.00016 11.3949C9.26293 11.3949 9.47596 11.6078 9.47596 11.8707C9.47596 12.1334 9.26293 12.3465 9.00016 12.3465ZM9.52754 9.86664L9.47596 9.96747C9.47596 10.2305 9.26315 10.4433 9.00016 10.4433C8.73717 10.4433 8.52436 10.2305 8.52436 9.96747C8.52436 9.51724 8.77993 9.13993 9.1758 8.98241C9.35841 8.90993 9.47596 8.73614 9.47596 8.54008C9.47596 8.27756 9.26268 8.06428 9.00016 8.06428C8.73765 8.06428 8.52436 8.27756 8.52436 8.54008C8.52436 8.80307 8.31156 9.01588 8.04857 9.01588C7.78558 9.01588 7.57277 8.80307 7.57277 8.54008C7.57277 7.75298 8.21306 7.11268 9.00016 7.11268C9.78726 7.11268 10.4276 7.75298 10.4276 8.54008C10.4276 9.12832 10.0744 9.6492 9.52754 9.86664Z" fill="#62748E" />
		<path d="M6.62134 14.5874C6.62134 15.999 7.66632 17.1044 9.00033 17.1044C10.312 17.1044 11.3793 16.0371 11.3793 14.7254V14.2496H6.62134V14.5874Z" fill="#62748E" />
	</g>
	<defs>
		<clipPath id="clip0_577_1800">
			<rect width="18" height="18" fill="white" />
		</clipPath>
	</defs>
</svg>
