<svg width="69" height="15" viewBox="0 0 69 15" fill="none" xmlns="http://www.w3.org/2000/svg">
	<path d="M1.36147 4.72461H-0.00195312V3.56633H1.36147V1.35788H2.57669V3.56633H4.48845V4.72461H2.57669V9.37316C2.57669 9.70262 2.63597 9.93942 2.75453 10.0836C2.88297 10.2174 3.10032 10.2843 3.4066 10.2843H4.72556V11.4426H3.3325C2.62115 11.4426 2.11234 11.2779 1.80606 10.9484C1.50967 10.6189 1.36147 10.099 1.36147 9.3886V4.72461Z" fill="white" />
	<path d="M8.64089 11.5353C7.90978 11.5353 7.25771 11.3654 6.68468 11.0256C6.12152 10.6859 5.68187 10.2123 5.36572 9.60481C5.04956 8.99736 4.89148 8.29725 4.89148 7.50447C4.89148 6.71169 5.04956 6.01158 5.36572 5.40413C5.68187 4.79668 6.12152 4.32307 6.68468 3.98331C7.25771 3.64355 7.90978 3.47367 8.64089 3.47367C9.372 3.47367 10.0191 3.64355 10.5823 3.98331C11.1553 4.32307 11.5999 4.79668 11.9161 5.40413C12.2322 6.01158 12.3903 6.71169 12.3903 7.50447C12.3903 8.29725 12.2322 8.99736 11.9161 9.60481C11.5999 10.2123 11.1553 10.6859 10.5823 11.0256C10.0191 11.3654 9.372 11.5353 8.64089 11.5353ZM8.64089 10.4079C9.13488 10.4079 9.5696 10.2843 9.94503 10.0372C10.3303 9.79013 10.6267 9.44523 10.8342 9.00251C11.0417 8.55979 11.1454 8.06044 11.1454 7.50447C11.1454 6.9485 11.0417 6.44915 10.8342 6.00643C10.6267 5.56371 10.3303 5.2188 9.94503 4.97171C9.5696 4.72461 9.13488 4.60106 8.64089 4.60106C8.1469 4.60106 7.70724 4.72461 7.32193 4.97171C6.94649 5.2188 6.65504 5.56371 6.44756 6.00643C6.24008 6.44915 6.13634 6.9485 6.13634 7.50447C6.13634 8.06044 6.24008 8.55979 6.44756 9.00251C6.65504 9.44523 6.94649 9.79013 7.32193 10.0372C7.70724 10.2843 8.1469 10.4079 8.64089 10.4079Z" fill="white" />
	<path d="M20.7129 3.56633V11.0565C20.7129 13.4348 19.4631 14.624 16.9635 14.624C15.9854 14.624 15.1851 14.3924 14.5627 13.929C13.9501 13.4657 13.5945 12.8068 13.4957 11.9522H14.7405C14.8393 12.4464 15.0913 12.8274 15.4963 13.0951C15.9014 13.3628 16.4201 13.4966 17.0524 13.4966C18.6826 13.4966 19.4977 12.6678 19.4977 11.0102V10.0836C18.9543 11.0514 18.0898 11.5353 16.9042 11.5353C16.2027 11.5353 15.5754 11.3757 15.0221 11.0565C14.4787 10.7373 14.0489 10.274 13.7328 9.66659C13.4265 9.05913 13.2734 8.33843 13.2734 7.50447C13.2734 6.71169 13.4265 6.01158 13.7328 5.40413C14.0489 4.79668 14.4836 4.32307 15.0369 3.98331C15.5902 3.64355 16.2126 3.47367 16.9042 3.47367C17.5168 3.47367 18.0404 3.60237 18.4751 3.85976C18.9098 4.10686 19.2507 4.46206 19.4977 4.92537L19.6607 3.56633H20.7129ZM17.0228 10.4079C17.5069 10.4079 17.9367 10.2895 18.3121 10.0527C18.6974 9.80558 18.9938 9.46582 19.2013 9.03339C19.4088 8.59068 19.5125 8.09133 19.5125 7.53536C19.5125 6.96909 19.4088 6.46459 19.2013 6.02188C18.9938 5.56886 18.6974 5.2188 18.3121 4.97171C17.9367 4.72461 17.5069 4.60106 17.0228 4.60106C16.2719 4.60106 15.6643 4.8739 15.1999 5.41957C14.7455 5.95495 14.5182 6.64992 14.5182 7.50447C14.5182 8.35902 14.7455 9.05913 15.1999 9.60481C15.6643 10.1402 16.2719 10.4079 17.0228 10.4079Z" fill="white" />
	<path d="M21.8579 7.50447C21.8579 6.7014 22.006 5.99614 22.3024 5.38869C22.6087 4.78123 23.0336 4.31278 23.5769 3.98331C24.1203 3.64355 24.7428 3.47367 25.4442 3.47367C26.1358 3.47367 26.7484 3.62296 27.2819 3.92154C27.8154 4.22011 28.2353 4.65254 28.5416 5.2188C28.8479 5.78507 29.0109 6.44915 29.0306 7.21104C29.0306 7.32429 29.0208 7.50447 29.001 7.75157H23.1324V7.85967C23.1521 8.63186 23.3793 9.24961 23.8141 9.71292C24.2488 10.1762 24.8169 10.4079 25.5183 10.4079C26.0617 10.4079 26.5211 10.2689 26.8966 9.9909C27.2819 9.70262 27.5388 9.30623 27.6672 8.80174H28.8973C28.7491 9.60481 28.3786 10.2637 27.7858 10.7785C27.193 11.283 26.4668 11.5353 25.6073 11.5353C24.8564 11.5353 24.1994 11.3705 23.6362 11.0411C23.0731 10.7013 22.6334 10.2277 22.3173 9.62025C22.011 9.00251 21.8579 8.29725 21.8579 7.50447ZM27.7709 6.7014C27.7117 6.03217 27.4696 5.51223 27.0448 5.14159C26.6298 4.77094 26.1013 4.58561 25.4591 4.58561C24.886 4.58561 24.3822 4.78123 23.9474 5.17247C23.5127 5.56371 23.2657 6.07336 23.2064 6.7014H27.7709Z" fill="white" />
	<path d="M30.5907 4.72461H29.2272V3.56633H30.5907V1.35788H31.8059V3.56633H33.7176V4.72461H31.8059V9.37316C31.8059 9.70262 31.8652 9.93942 31.9837 10.0836C32.1122 10.2174 32.3295 10.2843 32.6358 10.2843H33.9547V11.4426H32.5617C31.8503 11.4426 31.3415 11.2779 31.0352 10.9484C30.7388 10.6189 30.5907 10.099 30.5907 9.3886V4.72461Z" fill="white" />
	<path d="M38.2805 3.47367C39.1993 3.47367 39.9403 3.76195 40.5035 4.33852C41.0666 4.91508 41.3482 5.82111 41.3482 7.0566V11.4426H40.133V7.13382C40.133 6.32045 39.9552 5.70271 39.5995 5.28058C39.2438 4.84816 38.735 4.63194 38.073 4.63194C37.3716 4.63194 36.8134 4.88934 36.3984 5.40413C35.9933 5.91892 35.7908 6.61903 35.7908 7.50447V11.4426H34.5756V0.632031H35.7908V4.8636C36.0378 4.45177 36.3638 4.11716 36.7689 3.85976C37.1839 3.60237 37.6877 3.47367 38.2805 3.47367Z" fill="white" />
	<path d="M42.3868 7.50447C42.3868 6.7014 42.535 5.99614 42.8314 5.38869C43.1376 4.78123 43.5625 4.31278 44.1059 3.98331C44.6493 3.64355 45.2717 3.47367 45.9732 3.47367C46.6647 3.47367 47.2773 3.62296 47.8108 3.92154C48.3443 4.22011 48.7642 4.65254 49.0705 5.2188C49.3768 5.78507 49.5398 6.44915 49.5595 7.21104C49.5595 7.32429 49.5497 7.50447 49.5299 7.75157H43.6613V7.85967C43.681 8.63186 43.9083 9.24961 44.343 9.71292C44.7777 10.1762 45.3458 10.4079 46.0473 10.4079C46.5906 10.4079 47.0501 10.2689 47.4255 9.9909C47.8108 9.70262 48.0677 9.30623 48.1961 8.80174H49.4262C49.278 9.60481 48.9075 10.2637 48.3147 10.7785C47.7219 11.283 46.9957 11.5353 46.1362 11.5353C45.3853 11.5353 44.7283 11.3705 44.1651 11.0411C43.602 10.7013 43.1623 10.2277 42.8462 9.62025C42.5399 9.00251 42.3868 8.29725 42.3868 7.50447ZM48.2999 6.7014C48.2406 6.03217 47.9985 5.51223 47.5737 5.14159C47.1587 4.77094 46.6302 4.58561 45.988 4.58561C45.4149 4.58561 44.9111 4.78123 44.4764 5.17247C44.0416 5.56371 43.7946 6.07336 43.7354 6.7014H48.2999Z" fill="white" />
	<path d="M54.5409 3.56633V4.80183H53.9332C53.212 4.80183 52.6933 5.05407 52.3772 5.55857C52.0709 6.06306 51.9178 6.68595 51.9178 7.42725V11.4426H50.7025V3.56633H51.7547L51.9178 4.75549C52.1351 4.39514 52.4167 4.10686 52.7625 3.89065C53.1083 3.67444 53.5875 3.56633 54.2 3.56633H54.5409Z" fill="white" />
	<path d="M66.9185 10.2843V11.4426H66.2516C65.7675 11.4426 65.4217 11.3397 65.2142 11.1337C65.0067 10.9278 64.898 10.6241 64.8881 10.2226C64.3052 11.0977 63.4605 11.5353 62.354 11.5353C61.5142 11.5353 60.8374 11.3294 60.3237 10.9175C59.8198 10.5057 59.5678 9.94457 59.5678 9.23416C59.5678 8.44139 59.8247 7.83393 60.3385 7.41181C60.8621 6.98968 61.6179 6.77862 62.6059 6.77862H64.8289V6.23809C64.8289 5.7233 64.6609 5.32176 64.325 5.03348C63.999 4.7452 63.5395 4.60106 62.9468 4.60106C62.4231 4.60106 61.9884 4.72461 61.6426 4.97171C61.3067 5.20851 61.0992 5.52768 61.0202 5.92921H59.805C59.8939 5.15703 60.2199 4.55473 60.7831 4.1223C61.3561 3.68988 62.0971 3.47367 63.006 3.47367C63.9743 3.47367 64.7202 3.72077 65.2438 4.21497C65.7773 4.69887 66.0441 5.39898 66.0441 6.31531V9.71292C66.0441 10.0939 66.2121 10.2843 66.548 10.2843H66.9185ZM64.8289 7.84423H62.4873C61.361 7.84423 60.7979 8.2818 60.7979 9.15694C60.7979 9.54818 60.9461 9.86221 61.2425 10.099C61.5389 10.3358 61.939 10.4542 62.4429 10.4542C63.1839 10.4542 63.7668 10.2534 64.1916 9.85191C64.6165 9.44008 64.8289 8.89955 64.8289 8.23032V7.84423Z" fill="white" />
	<path d="M68.2166 0.523926C68.4438 0.523926 68.6315 0.601144 68.7797 0.755581C68.9279 0.910017 69.002 1.10564 69.002 1.34244C69.002 1.57924 68.9279 1.77486 68.7797 1.9293C68.6315 2.08374 68.4438 2.16096 68.2166 2.16096C67.9894 2.16096 67.8016 2.08374 67.6534 1.9293C67.5052 1.77486 67.4311 1.57924 67.4311 1.34244C67.4311 1.10564 67.5052 0.910017 67.6534 0.755581C67.8016 0.601144 67.9894 0.523926 68.2166 0.523926ZM67.609 3.56633H68.8242V11.4426H67.609V3.56633Z" fill="white" />
	<path d="M57.1919 10.2432C57.1919 10.9056 56.6704 11.4425 56.0271 11.4425C55.3838 11.4425 54.8623 10.9056 54.8623 10.2432C54.8623 9.58089 55.3838 9.04395 56.0271 9.04395C56.6704 9.04395 57.1919 9.58089 57.1919 10.2432Z" fill="#0F6FFF" />
</svg>
