<svg width="20" height="20" viewBox="0 0 20 20" fill="none" xmlns="http://www.w3.org/2000/svg">
	<path fill-rule="evenodd" clip-rule="evenodd" d="M4.6875 1.25H7.5C8.3288 1.25 9.12366 1.57924 9.70971 2.16529C10.2958 2.75134 10.625 3.5462 10.625 4.375V5.9375C10.625 6.80083 11.325 7.5 12.1875 7.5H13.75C14.5788 7.5 15.3737 7.82924 15.9597 8.41529C16.5458 9.00134 16.875 9.7962 16.875 10.625V17.1875C16.875 18.05 16.175 18.75 15.3125 18.75H4.6875C4.2731 18.75 3.87567 18.5854 3.58265 18.2924C3.28962 17.9993 3.125 17.6019 3.125 17.1875V2.8125C3.125 1.94917 3.825 1.25 4.6875 1.25ZM10.4417 9.55833C10.3245 9.44129 10.1656 9.37555 10 9.37555C9.83437 9.37555 9.67552 9.44129 9.55833 9.55833L7.05833 12.0583C6.99693 12.1156 6.94768 12.1846 6.91352 12.2612C6.87936 12.3379 6.86099 12.4206 6.85951 12.5046C6.85803 12.5885 6.87346 12.6718 6.9049 12.7497C6.93633 12.8275 6.98312 12.8982 7.04247 12.9575C7.10182 13.0169 7.17251 13.0637 7.25034 13.0951C7.32816 13.1265 7.41152 13.142 7.49543 13.1405C7.57935 13.139 7.66212 13.1206 7.73878 13.0865C7.81545 13.0523 7.88445 13.0031 7.94167 12.9417L9.375 11.5083V15C9.375 15.1658 9.44085 15.3247 9.55806 15.4419C9.67527 15.5592 9.83424 15.625 10 15.625C10.1658 15.625 10.3247 15.5592 10.4419 15.4419C10.5592 15.3247 10.625 15.1658 10.625 15V11.5083L12.0583 12.9417C12.1156 13.0031 12.1846 13.0523 12.2612 13.0865C12.3379 13.1206 12.4206 13.139 12.5046 13.1405C12.5885 13.142 12.6718 13.1265 12.7497 13.0951C12.8275 13.0637 12.8982 13.0169 12.9575 12.9575C13.0169 12.8982 13.0637 12.8275 13.0951 12.7497C13.1265 12.6718 13.142 12.5885 13.1405 12.5046C13.139 12.4206 13.1206 12.3379 13.0865 12.2612C13.0523 12.1846 13.0031 12.1156 12.9417 12.0583L10.4417 9.55833Z" fill="#0F172B" />
	<path d="M11.875 4.375C11.8765 3.32379 11.4979 2.30747 10.8092 1.51334C12.2036 1.87997 13.4756 2.6104 14.4951 3.62991C15.5146 4.64942 16.245 5.92143 16.6117 7.31584C15.8175 6.62707 14.8012 6.24854 13.75 6.25H12.1875C12.1046 6.25 12.0251 6.21708 11.9665 6.15847C11.9079 6.09987 11.875 6.02038 11.875 5.9375V4.375Z" fill="#0F172B" />
</svg>
