<svg width="16" height="16" viewBox="0 0 16 16" fill="none" xmlns="http://www.w3.org/2000/svg">
	<path fill-rule="evenodd" clip-rule="evenodd" d="M3.75 1H6C6.66304 1 7.29893 1.26339 7.76777 1.73223C8.23661 2.20107 8.5 2.83696 8.5 3.5V4.75C8.5 5.44067 9.06 6 9.75 6H11C11.663 6 12.2989 6.26339 12.7678 6.73223C13.2366 7.20107 13.5 7.83696 13.5 8.5V13.75C13.5 14.44 12.94 15 12.25 15H3.75C3.41848 15 3.10054 14.8683 2.86612 14.6339C2.6317 14.3995 2.5 14.0815 2.5 13.75V2.25C2.5 1.55933 3.06 1 3.75 1ZM6.5 11.5C6.5 11.3674 6.44732 11.2402 6.35355 11.1464C6.25979 11.0527 6.13261 11 6 11C5.86739 11 5.74022 11.0527 5.64645 11.1464C5.55268 11.2402 5.5 11.3674 5.5 11.5V12C5.5 12.1326 5.55268 12.2598 5.64645 12.3536C5.74022 12.4473 5.86739 12.5 6 12.5C6.13261 12.5 6.25979 12.4473 6.35355 12.3536C6.44732 12.2598 6.5 12.1326 6.5 12V11.5ZM8 9.5C8.13261 9.5 8.25979 9.55268 8.35355 9.64645C8.44732 9.74022 8.5 9.86739 8.5 10V12C8.5 12.1326 8.44732 12.2598 8.35355 12.3536C8.25979 12.4473 8.13261 12.5 8 12.5C7.86739 12.5 7.74022 12.4473 7.64645 12.3536C7.55268 12.2598 7.5 12.1326 7.5 12V10C7.5 9.86739 7.55268 9.74022 7.64645 9.64645C7.74022 9.55268 7.86739 9.5 8 9.5ZM10.5 8.5C10.5 8.36739 10.4473 8.24022 10.3536 8.14645C10.2598 8.05268 10.1326 8 10 8C9.86739 8 9.74022 8.05268 9.64645 8.14645C9.55268 8.24022 9.5 8.36739 9.5 8.5V12C9.5 12.1326 9.55268 12.2598 9.64645 12.3536C9.74022 12.4473 9.86739 12.5 10 12.5C10.1326 12.5 10.2598 12.4473 10.3536 12.3536C10.4473 12.2598 10.5 12.1326 10.5 12V8.5Z" fill="#45556C" />
	<path d="M9.49988 3.5C9.50105 2.65903 9.19823 1.84597 8.64722 1.21066C9.76274 1.50397 10.7804 2.08831 11.596 2.90392C12.4116 3.71953 12.9959 4.73714 13.2892 5.85266C12.6539 5.30165 11.8409 4.99883 10.9999 5H9.74988C9.68358 5 9.61999 4.97366 9.57311 4.92677C9.52622 4.87989 9.49988 4.8163 9.49988 4.75V3.5Z" fill="#45556C" />
</svg>
